#!OML:ASF G:\ViconDB\ViconDB\414\test\team2\shane.ASF
:FULLY-SPECIFIED
:DEGREES
161
root 8.41681 14.5986 -5.30521 290.096 -68.7922 70.9367
lowerback 16.3702 -1.73656 7.51285
upperback 5.19921 -1.22984 5.22089
thorax -3.62258 -0.778206 1.53576
lowerneck -29.2688 1.15609 -0.173778
upperneck 11.2371 2.11109 -3.19231
head 8.17395 0.580163 -0.766981
rclavicle -9.54166e-015 -5.725e-014
rhumerus -24.2238 -17.4912 -51.8673
rradius 20.8322
rwrist 41.4972
rhand -34.7011 -24.4299
rfingers 7.12502
rthumb -7.85632 -54.264
lclavicle -9.54166e-015 -5.725e-014
lhumerus -32.9906 -26.0583 89.3579
lradius 36.5539
lwrist -15.5164
lhand -47.4298 6.38741
lfingers 7.12502
lthumb -20.1204 35.3655
rfemur -51.3801 -34.4473 17.1708
rtibia 78.5538
rfoot -27.4823 -31.3359
rtoes -9.39354
lfemur -0.271065 25.1406 -4.74678
ltibia 81.4844
lfoot -19.5561 -0.161546
ltoes -3.57468
162
root 8.53197 14.6771 -5.25314 296.832 -68.3491 63.5731
lowerback 16.0222 -1.87217 7.13265
upperback 5.17619 -1.48643 5.06162
thorax -3.46877 -0.891342 1.61467
lowerneck -29.0977 1.13911 -0.396111
upperneck 10.9206 2.13521 -3.06831
head 8.03507 0.600656 -0.685528
rclavicle 5.56597e-014 -3.81667e-014
rhumerus -25.0506 -18.2267 -52.346
rradius 20.8177
rwrist 41.109
rhand -34.7764 -23.5797
rfingers 7.12502
rthumb -7.92895 -53.411
lclavicle 5.56597e-014 -3.81667e-014
lhumerus -33.7002 -27.8482 91.2936
lradius 38.1972
lwrist -15.0338
lhand -47.6669 5.93332
lfingers 7.12502
lthumb -20.3483 34.8873
rfemur -49.6399 -34.4182 15.7502
rtibia 77.4227
rfoot -26.1457 -30.2505
rtoes -8.64121
lfemur -0.045594 24.3853 -4.264
ltibia 80.3796
lfoot -19.8367 0.0792628
ltoes -3.67475
163
root 8.64727 14.7527 -5.20841 303.416 -67.645 56.4272
lowerback 15.5423 -1.93746 6.73684
upperback 5.27621 -1.6798 4.93712
thorax -3.10797 -0.972079 1.71707
lowerneck -29.1574 1.07693 -0.520272
upperneck 10.6597 2.08697 -3.06864
head 7.95229 0.573756 -0.673284
rclavicle -2.54444e-014 2.54444e-014
rhumerus -25.948 -17.1444 -53.3647
rradius 21.481
rwrist 38.9544
rhand -34.4798 -23.5831
rfingers 7.12502
rthumb -7.64272 -53.425
lclavicle -2.54444e-014 2.54444e-014
lhumerus -34.1611 -29.9899 93.01
lradius 39.5858
lwrist -14.7272
lhand -47.6912 5.9048
lfingers 7.12502
lthumb -20.3716 34.8563
rfemur -47.9673 -34.2655 14.48
rtibia 76.2398
rfoot -24.2275 -29.5311
rtoes -8.84793
lfemur -0.00919753 23.6461 -3.74762
ltibia 79.0665
lfoot -20.3013 0.645827
ltoes -4.12178
164
root 8.76461 14.8278 -5.16569 309.482 -66.6772 49.8365
lowerback 15.1322 -1.9612 6.37614
upperback 5.37248 -1.80189 4.78367
thorax -2.78744 -1.01954 1.75788
lowerneck -29.147 0.988001 -0.765903
upperneck 10.4942 2.01611 -2.84876
head 7.88694 0.556737 -0.569514
rclavicle -1.11319e-014 -4.45278e-014
rhumerus -26.7103 -16.7684 -54.1919
rradius 21.84
rwrist 37.7631
rhand -34.0705 -23.4367
rfingers 7.12502
rthumb -7.24758 -53.2926
lclavicle -1.11319e-014 -4.45278e-014
lhumerus -34.7384 -31.9194 94.6351
lradius 40.8028
lwrist -15.2702
lhand -48.1781 6.80866
lfingers 7.12502
lthumb -20.8395 35.7095
rfemur -46.3308 -34.0215 13.2471
rtibia 75.057
rfoot -22.8629 -28.5265
rtoes -8.8663
lfemur -0.0055442 23.0328 -3.11741
ltibia 77.6005
lfoot -20.7462 1.08929
ltoes -3.55144
165
root 8.89065 14.8959 -5.12044 315.171 -65.4583 43.7155
lowerback 14.7878 -2.00654 6.00902
upperback 5.4769 -1.94459 4.70824
thorax -2.48957 -1.08113 1.89029
lowerneck -29.1495 0.962564 -0.712143
upperneck 10.2794 1.99183 -3.06867
head 7.81738 0.525244 -0.656885
rclavicle -2.38542e-014 2.8625e-014
rhumerus -27.2528 -16.3365 -54.9485
rradius 22.067
rwrist 36.8408
rhand -33.9661 -23.2051
rfingers 7.12502
rthumb -7.14688 -53.0644
lclavicle -2.38542e-014 2.8625e-014
lhumerus -34.7096 -33.1016 95.9935
lradius 42.1831
lwrist -12.4056
lhand -46.5952 3.58451
lfingers 7.12502
lthumb -19.3181 32.645
rfemur -44.7938 -33.8989 12.2027
rtibia 73.7995
rfoot -21.5062 -27.4231
rtoes -8.41243
lfemur -0.225084 22.3363 -2.57052
ltibia 76.0186
lfoot -21.3837 2.03998
ltoes -3.29326
166
root 9.01602 14.9554 -5.07957 320.349 -64.0913 38.1501
lowerback 14.5935 -2.00978 5.72495
upperback 5.47182 -1.9917 4.57941
thorax -2.39029 -1.09694 1.91238
lowerneck -29.0677 0.83935 -0.816653
upperneck 10.2397 1.83473 -2.87447
head 7.78562 0.471444 -0.596407
rclavicle 9.54166e-015 -3.18055e-014
rhumerus -28.0046 -15.5835 -55.8559
rradius 22.4639
rwrist 35.597
rhand -33.6552 -23.2788
rfingers 7.12502
rthumb -6.84673 -53.1481
lclavicle 9.54166e-015 -3.18055e-014
lhumerus -34.7096 -33.1016 95.9935
lradius 42.1831
lwrist -12.4056
lhand -46.5952 3.58451
lfingers 7.12502
lthumb -19.3181 32.645
rfemur -43.2708 -33.6828 11.3392
rtibia 72.4444
rfoot -20.6428 -26.6669
rtoes -7.67387
lfemur -0.560408 21.8957 -1.85022
ltibia 74.3894
lfoot -22.0713 3.02953
ltoes -3.65874
167
root 9.15053 15.0135 -5.0391 324.978 -62.4577 33.1114
lowerback 14.5564 -2.05867 5.46654
upperback 5.53185 -2.0895 4.47556
thorax -2.30544 -1.14019 1.96
lowerneck -29.0948 0.758493 -0.893918
upperneck 10.1656 1.73076 -2.72895
head 7.76024 0.436951 -0.549349
rclavicle 4.13472e-014 -5.40694e-014
rhumerus -28.4165 -14.5083 -56.8344
rradius 22.8399
rwrist 34.6868
rhand -33.3565 -23.6546
rfingers 7.12502
rthumb -6.55835 -53.533
lclavicle 4.13472e-014 -5.40694e-014
lhumerus -35.6251 -35.3955 98.6702
lradius 43.5603
lwrist -13.5579
lhand -47.0653 3.58415
lfingers 7.12502
lthumb -19.7701 32.5987
rfemur -41.7938 -33.7064 10.6142
rtibia 71.0886
rfoot -19.75 -26.3531
rtoes -7.54284
lfemur -0.996033 21.6561 -1.2277
ltibia 72.7497
lfoot -22.6049 4.03285
ltoes -3.91271
168
root 9.27686 15.0636 -4.99133 328.776 -60.7369 29.067
lowerback 14.2646 -2.04981 5.06515
upperback 5.62106 -2.1534 4.31606
thorax -2.05128 -1.16483 2.0114
lowerneck -29.0303 0.52617 -1.19032
upperneck 10.005 1.46112 -2.34397
head 7.68595 0.342969 -0.409767
rclavicle 3.18055e-014 -7.63333e-014
rhumerus -28.6736 -13.6711 -57.6764
rradius 22.9256
rwrist 34.2536
rhand -33.401 -23.556
rfingers 7.12502
rthumb -6.60137 -53.4331
lclavicle 3.18055e-014 -7.63333e-014
lhumerus -35.8333 -35.9923 99.6449
lradius 43.9006
lwrist -14.5728
lhand -47.0069 2.92615
lfingers 7.12502
lthumb -19.7139 31.9465
rfemur -40.5313 -34.0323 10.0511
rtibia 69.7124
rfoot -19.2525 -26.21
rtoes -6.79591
lfemur -1.51365 21.6185 -0.843081
ltibia 71.1063
lfoot -23.323 5.4353
ltoes -4.25187
169
root 9.41952 15.069 -4.94432 332.531 -58.9724 25.0463
lowerback 14.2923 -2.06398 4.91756
upperback 5.63207 -2.17986 4.24857
thorax -2.05351 -1.17414 2.02786
lowerneck -28.9245 0.331361 -1.35896
upperneck 9.88746 1.22072 -2.10177
head 7.62483 0.252311 -0.334649
rclavicle 3.81667e-014 -3.49861e-014
rhumerus -28.9341 -13.3783 -58.1805
rradius 22.8962
rwrist 34.8776
rhand -33.4201 -23.6007
rfingers 7.12502
rthumb -6.61981 -53.4773
lclavicle 3.81667e-014 -3.49861e-014
lhumerus -35.9404 -36.2719 100.48
lradius 44.0052
lwrist -15.9887
lhand -46.8206 2.96603
lfingers 7.12502
lthumb -19.5348 32.0047
rfemur -39.7135 -34.6034 10.0343
rtibia 68.4961
rfoot -18.8601 -26.5912
rtoes -6.07224
lfemur -2.25537 21.525 -0.135389
ltibia 69.6571
lfoot -23.745 6.55265
ltoes -4.51564
170
root 9.5559 15.1114 -4.89964 335.706 -57.2149 21.7153
lowerback 14.2916 -2.02716 4.66983
upperback 5.69487 -2.16054 4.14354
thorax -1.98439 -1.16095 2.05093
lowerneck -28.9182 0.181233 -1.40994
upperneck 9.76276 0.997968 -1.86456
head 7.57763 0.173197 -0.277256
rclavicle 3.33958e-014 1.59028e-014
rhumerus -29.0071 -12.5781 -58.8332
rradius 23.079
rwrist 34.3967
rhand -33.7401 -22.6299
rfingers 7.12502
rthumb -6.92866 -52.4966
lclavicle 3.33958e-014 1.59028e-014
lhumerus -35.9568 -36.7686 101.192
lradius 43.9806
lwrist -16.7707
lhand -47.1231 2.93847
lfingers 7.12502
lthumb -19.8256 31.9473
rfemur -38.961 -35.3066 10.2045
rtibia 67.1605
rfoot -18.8506 -27.3037
rtoes -5.06465
lfemur -3.01755 21.6362 0.286828
ltibia 68.095
lfoot -23.5861 7.41497
ltoes -4.90331
171
root 9.68563 15.1438 -4.84941 338.393 -55.4705 18.8724
lowerback 14.1911 -1.97228 4.37549
upperback 5.86223 -2.14125 4.02311
thorax -1.75081 -1.14791 2.07732
lowerneck -28.9195 0.0835863 -1.39137
upperneck 9.53078 0.829263 -1.7095
head 7.49671 0.113653 -0.251083
rclavicle 3.89618e-014 3.81667e-014
rhumerus -28.8733 -11.2663 -59.7195
rradius 23.4161
rwrist 33.6821
rhand -33.8284 -22.7019
rfingers 7.12502
rthumb -7.01393 -52.5657
lclavicle 3.89618e-014 3.81667e-014
lhumerus -35.7559 -36.8378 101.716
lradius 43.8215
lwrist -17.0776
lhand -47.0866 3.15405
lfingers 7.12502
lthumb -19.7906 32.1665
rfemur -38.4196 -36.4358 10.5256
rtibia 65.9424
rfoot -18.6655 -27.9883
rtoes -3.98967
lfemur -3.61537 21.6833 0.632155
ltibia 66.5121
lfoot -22.6442 7.31932
ltoes -5.35531
172
root 9.82535 15.1658 -4.79461 340.415 -53.6837 16.6623
lowerback 14.2935 -1.87929 4.11551
upperback 6.08831 -2.0588 3.85091
thorax -1.56718 -1.1043 2.02771
lowerneck -29.0057 -0.197789 -1.73551
upperneck 9.2877 0.51511 -1.33042
head 7.42253 -0.0066565 -0.112477
rclavicle 6.04305e-014 -1.59028e-014
rhumerus -28.6744 -11.5727 -59.5653
rradius 23.1233
rwrist 35.5587
rhand -34.4069 -21.2381
rfingers 7.12502
rthumb -7.57229 -51.0825
lclavicle 6.04305e-014 -1.59028e-014
lhumerus -35.3006 -36.8562 101.974
lradius 43.4278
lwrist -18.2137
lhand -47.1886 3.69047
lfingers 7.12502
lthumb -19.8886 32.6928
rfemur -37.8489 -37.7251 10.5904
rtibia 64.8097
rfoot -19.1008 -28.0234
rtoes -3.27158
lfemur -4.09805 21.6842 0.666808
ltibia 64.862
lfoot -21.4429 6.29781
ltoes -5.40268
173
root 9.9546 15.174 -4.736 342.533 -51.899 14.365
lowerback 14.2575 -1.8329 4.0813
upperback 6.27831 -2.01425 3.63053
thorax -1.35576 -1.07446 1.8028
lowerneck -29.0469 -0.421769 -1.84374
upperneck 9.16107 0.198488 -0.969859
head 7.38414 -0.120564 -0.0173087
rclavicle -2.38542e-015 -1.59028e-014
rhumerus -28.4784 -10.8271 -60.0721
rradius 23.5729
rwrist 35.7823
rhand -33.956 -21.1131
rfingers 7.12502
rthumb -7.13706 -50.9728
lclavicle -2.38542e-015 -1.59028e-014
lhumerus -35.0602 -36.9959 102.178
lradius 42.9965
lwrist -18.5421
lhand -47.4432 3.6912
lfingers 7.12502
lthumb -20.1333 32.6679
rfemur -37.5048 -39.2033 10.9368
rtibia 63.9315
rfoot -19.3993 -27.8461
rtoes -2.98532
lfemur -4.53585 21.4551 0.868316
ltibia 63.1085
lfoot -20.3786 4.20492
ltoes -6.25748
174
root 10.0978 15.173 -4.67778 344.157 -50.3192 12.7785
lowerback 14.4042 -1.70097 3.83987
upperback 6.41066 -1.86727 3.40372
thorax -1.29727 -0.998305 1.68012
lowerneck -29.0674 -0.619547 -2.16648
upperneck 9.00216 -0.00978916 -0.577411
head 7.33295 -0.188273 0.137524
rclavicle -3.10104e-014 -5.725e-014
rhumerus -28.1468 -9.85964 -60.4245
rradius 23.8208
rwrist 34.9946
rhand -34.3245 -19.9816
rfingers 7.12502
rthumb -7.49281 -49.8289
lclavicle -3.10104e-014 -5.725e-014
lhumerus -34.8694 -37.0396 102.372
lradius 42.917
lwrist -18.1841
lhand -47.0582 4.08509
lfingers 7.12502
lthumb -19.7633 33.1004
rfemur -37.6111 -40.3448 11.0974
rtibia 63.3489
rfoot -19.6193 -27.4372
rtoes -2.75554
lfemur -5.01029 21.3039 0.655754
ltibia 61.3412
lfoot -19.2944 2.15036
ltoes -9.4713
